# AST/ASF file generated using VICON BodyLanguage
# -----------------------------------------------
:version 1.10
:name VICON
:units
  mass 1.0
  length 0.45
  angle deg
:documentation
   .ast/.asf automatically generated from VICON data using
   VICON BodyBuilder and BodyLanguage model FoxedUp or BRILLIANT.MOD
:root
   order TX TY TZ RX RY RZ
   axis XYZ
   position 0 0 0  
   orientation 0 0 0 
:bonedata
  begin
     id 1 
     name lhipjoint
     direction 0.61522 -0.761478 0.204097 
     length 2.55743 
     axis 0 0 0  XYZ
  end
  begin
     id 2 
     name lfemur
     direction 0.34202 -0.939693 0  
     length 7.61162  
     axis 0 0 20  XYZ
    dof rx ry rz
    limits (-160.0 20.0)
           (-70.0 70.0)
           (-60.0 70.0)
  end
  begin
     id 3 
     name ltibia
     direction 0.34202 -0.939693 0   
     length 8.12393   
     axis 0 0 20   XYZ
    dof rx
    limits (-10.0 170.0)
  end
  begin
     id 4 
     name lfoot
     direction 0.0841971 -0.23133 0.969225   
     length 2.3572   
     axis -90 7.62852e-016 20   XYZ
    dof rx rz
    limits (-45.0 90.0)
           (-70.0 20.0)
  end
  begin
     id 5 
     name ltoes
     direction 1.53562e-011 -4.22209e-011 1   
     length 1.17993   
     axis -90 7.62852e-016 20   XYZ
    dof rx
    limits (-90.0 20.0)
  end
  begin
     id 6 
     name rhipjoint
     direction -0.625247 -0.75382 0.202044   
     length 2.58341  
     axis 0 0 0  XYZ 
  end
  begin
     id 7 
     name rfemur
     direction -0.34202 -0.939693 0   
     length 7.42147   
     axis 0 0 -20   XYZ
    dof rx ry rz
    limits (-160.0 20.0)
           (-70.0 70.0)
           (-70.0 60.0)
  end
  begin
     id 8 
     name rtibia
     direction -0.34202 -0.939693 0   
     length 8.20893   
     axis 0 0 -20   XYZ
    dof rx
    limits (-10.0 170.0)
 end
 begin
     id 9 
     name rfoot
     direction -0.124331 -0.341598 0.931586   
     length 2.45604  
     axis -90 -7.62852e-016 -20   XYZ
    dof rx rz
    limits (-45.0 90.0)
           (-20.0 70.0)
  end
  begin
     id 10 
     name rtoes
     direction -1.5353e-011 -4.2199e-011 1   
     length 1.21323   
     axis -90 -7.62852e-016 -20   XYZ
    dof rx
    limits (-90.0 20.0)
  end
  begin
     id 11 
     name lowerback
     direction -0.0218484 0.994884 -0.0986303   
     length 2.00523   
     axis 0 0 0   XYZ
    dof rx ry rz
    limits (-20.0 45.0)
           (-30.0 30.0)
           (-30.0 30.0)
  end
  begin
     id 12 
     name upperback
     direction -0.0097305 0.999717 -0.0217111   
     length 2.01352   
     axis 0 0 0   XYZ
    dof rx ry rz
    limits (-20.0 45.0)
           (-30.0 30.0)
           (-30.0 30.0)
  end
  begin
     id 13 
     name thorax
     direction -0.000928262 0.999699 0.0245198   
     length 2.02938   
     axis 0 0 0   XYZ
    dof rx ry rz
    limits (-20.0 45.0)
           (-30.0 30.0)
           (-30.0 30.0)
  end
  begin
     id 14 
     name lowerneck
     direction -0.0307979 0.998024 0.0547665   
     length 1.77263   
     axis 0 0 0   XYZ
    dof rx ry rz
    limits (-20.0 45.0)
           (-30.0 30.0)
           (-30.0 30.0)
  end
  begin
     id 15 
     name upperneck
     direction 0.0531587 0.996611 -0.0627734   
     length 1.77971   
     axis 0 0 0   XYZ
    dof rx ry rz
    limits (-20.0 45.0)
           (-30.0 30.0)
           (-30.0 30.0)
  end
  begin
     id 16
     name head
     direction 0.0213833 0.999404 -0.0271147  
     length 1.78263  
     axis 0 0 0   XYZ
    dof rx ry rz
    limits (-20.0 45.0)
           (-30.0 30.0)
           (-30.0 30.0)
  end
  begin
     id 17 
     name lclavicle
     direction 0.940017 0.332249 -0.0773233  
     length 3.73315  
     axis 0 0 0   XYZ
    dof ry rz
    limits (-20.0 10.0)
           (0.0 20.0)
  end
  begin
     id 18 
     name lhumerus
     direction 1 -4.48944e-011 7.52288e-028   
     length 5.40188   
     axis 180 -30 -90   XYZ
    dof rx ry rz
    limits (-60.0 90.0)
           (-90.0 90.0)
           (-90.0 90.0)
  end
  begin
     id 19
     name lradius
     direction 1 -4.48988e-011 1.48381e-027   
     length 3.68559   
     axis 180 -30 -90   XYZ
    dof rx
    limits (-10.0 170.0)
  end
  begin
     id 20
     name lwrist
     direction 1 -4.48925e-011 2.56952e-028   
     length 1.84279   
     axis -5.12785e-016 90 90   XYZ
    dof ry
    limits (-180.0 0.0)
 end
  begin
     id 21 
     name lhand
     direction 1 -4.49009e-011 5.13905e-028   
     length 0.61753   
     axis -3.27915e-016 90 90   XYZ
    dof rx rz
    limits (-90.0 90.0)
           (-45.0 45.0)
  end
  begin
     id 22 
     name lfingers
     direction 1 -4.49012e-011 1.02781e-027   
     length 0.497868   
     axis -6.5583e-016 90 90   XYZ
    dof rx
    limits (0.0 90.0)
  end
  begin
     id 23
     name lthumb
     direction 0.707107 -6.34987e-011 0.707107   
     length 0.714842   
     axis -90 45 2.85299e-015   XYZ
    dof rx rz
    limits (-45.0 45.0)
           (-45.0 45.0)
  end
  begin
     id 24 
     name rclavicle
     direction -0.9009 0.425937 -0.0834057   
     length 3.27864  
     axis 0 0 0   XYZ 
    dof ry rz
    limits (-10.0 20.0)
           (-20.0 0.0)
  end
  begin
     id 25 
     name rhumerus
     direction -1 -4.48953e-011 -1.03572e-027  
     length 6.1067   
     axis 180 30 90   XYZ
    dof rx ry rz
    limits (-90.0 60.0)
           (-90.0 90.0)
           (-90.0 90.0)
  end
  begin
     id 26 
     name rradius
     direction -1 -4.48975e-011 1.20742e-027   
     length 3.63052   
     axis 180 30 90   XYZ
    dof rx
    limits (-10.0 170.0)
  end
  begin
     id 27 
     name rwrist
     direction -1 -4.49017e-011 2.56952e-028   
     length 1.81526   
     axis -5.12785e-016 -90 -90   XYZ
    dof ry
    limits (-180.0 0.0)
  end
  begin
     id 28
     name rhand
     direction -1 -4.48832e-011 5.13905e-028   
     length 0.583848   
     axis -3.27915e-016 -90 -90   XYZ
    dof rx rz
    limits (-90.0 90.0)
           (-45.0 45.0)
  end
  begin
     id 29
     name rfingers
     direction -1 -4.48729e-011 1.02781e-027   
     length 0.470713   
     axis -6.5583e-016 -90 -90   XYZ
    dof rx
    limits (0.0 90.0)
  end
  begin
     id 30
     name rthumb
     direction -0.707107 -6.34964e-011 0.707107   
     length 0.675852   
     axis -90 -45 -2.85299e-015   XYZ
    dof rx rz
    limits (-45.0 45.0)
           (-45.0 45.0)
  end
:hierarchy
  begin
    root lhipjoint rhipjoint lowerback
    lhipjoint lfemur
    lfemur ltibia
    ltibia lfoot
    lfoot ltoes
    rhipjoint rfemur
    rfemur rtibia
    rtibia rfoot
    rfoot rtoes
    lowerback upperback
    upperback thorax
    thorax lowerneck lclavicle rclavicle
    lowerneck upperneck
    upperneck head
    lclavicle lhumerus
    lhumerus lradius
    lradius lwrist
    lwrist lhand lthumb
    lhand lfingers
    rclavicle rhumerus
    rhumerus rradius
    rradius rwrist
    rwrist rhand rthumb
    rhand rfingers
  end

#!OML:ASF F:\VICON\USERDATA\INSTALL\rory3\rory3.ASF
:FULLY-SPECIFIED
:DEGREES
96
root 0.315749 14.5317 -2.31668 4.15626 -3.65782 3.97549
lowerback 29.4565 0.685134 -3.9986
upperback 6.0027 -0.527961 -1.65645
thorax -9.45334 -0.168983 0.635575
lowerneck -13.2739 -1.47141 -7.99946
upperneck -8.9803 -0.653234 8.38701
head -0.533717 -0.0565166 4.20959
rclavicle -2.0276e-014 -2.44505e-014
rhumerus -22.4901 -0.550156 -81.9396
rradius 36.0277
rwrist 13.1171
rhand -29.1588 -1.31101
rfingers 7.12502
rthumb -2.50508 -31.276
lclavicle -2.0276e-014 -2.44505e-014
lhumerus -23.2122 2.08207 80.6085
lradius 33.3213
lwrist 2.4253
lhand -30.0823 22.6285
lfingers 7.12502
lthumb -3.39696 52.5812
rfemur -54.7338 -6.74917 12.6253
rtibia 98.5905
rfoot -32.7918 1.15034
rtoes -20.0255
lfemur -51.0752 9.29599 -23.0507
ltibia 94.1454
lfoot -30.6641 -7.6951
ltoes -8.05867
97
root 0.310651 14.5193 -2.32145 4.19563 -3.52744 4.00982
lowerback 29.5636 0.655451 -4.00004
upperback 5.94247 -0.571041 -1.63482
thorax -9.57311 -0.18571 0.676143
lowerneck -13.0942 -1.47469 -7.97685
upperneck -9.2546 -0.663809 8.28541
head -0.656202 -0.0663222 4.16825
rclavicle -3.37934e-015 -2.08724e-014
rhumerus -22.6348 -0.355259 -81.9282
rradius 36.1673
rwrist 12.8957
rhand -29.1294 -2.22522
rfingers 7.12502
rthumb -2.47672 -32.1906
lclavicle -3.37934e-015 -2.08724e-014
lhumerus -23.2662 1.75381 80.6784
lradius 33.6843
lwrist 2.73408
lhand -29.8149 22.8863
lfingers 7.12502
lthumb -3.13867 52.843
rfemur -54.8895 -6.90992 12.5482
rtibia 98.7885
rfoot -32.7313 1.49735
rtoes -19.5996
lfemur -51.3709 9.33415 -23.0055
ltibia 94.4003
lfoot -30.2468 -8.31
ltoes -7.03519
98
root 0.307142 14.4943 -2.32296 4.17899 -3.40253 4.22116
lowerback 29.6006 0.640242 -4.15423
upperback 5.96539 -0.640795 -1.66787
thorax -9.56041 -0.2145 0.753214
lowerneck -13.1959 -1.49215 -7.95778
upperneck -9.34372 -0.680912 8.22207
head -0.667932 -0.0736084 4.14126
rclavicle 2.28602e-015 1.21259e-014
rhumerus -22.719 -0.357801 -81.9164
rradius 36.3467
rwrist 12.9377
rhand -29.2578 -2.9383
rfingers 7.12502
rthumb -2.60066 -32.9022
lclavicle 2.28602e-015 1.21259e-014
lhumerus -23.2444 1.44438 80.7181
lradius 34.1168
lwrist 2.93673
lhand -29.583 23.1373
lfingers 7.12502
lthumb -2.91474 53.0971
rfemur -55.0397 -7.11146 12.2533
rtibia 99.0748
rfoot -32.726 1.74913
rtoes -19.4909
lfemur -51.5997 9.37179 -23.2144
ltibia 94.7356
lfoot -30.0654 -8.55915
ltoes -7.25363
99
root 0.303812 14.4624 -2.32033 4.17356 -3.36386 4.22838
lowerback 29.5872 0.628981 -4.1162
upperback 6.00662 -0.640939 -1.66675
thorax -9.50716 -0.216813 0.73276
lowerneck -13.3018 -1.51147 -7.88856
upperneck -9.4348 -0.708777 8.09965
head -0.679386 -0.0880286 4.08234
rclavicle -8.84592e-015 -1.13307e-014
rhumerus -22.8298 -0.430621 -81.9009
rradius 36.6764
rwrist 12.9241
rhand -29.9157 -2.42677
rfingers 7.12502
rthumb -3.23608 -32.382
lclavicle -8.84592e-015 -1.13307e-014
lhumerus -23.2141 1.10631 80.7457
lradius 34.6329
lwrist 3.11439
lhand -29.568 23.658
lfingers 7.12502
lthumb -2.90028 53.618
rfemur -55.1924 -7.14157 12.2188
rtibia 99.3912
rfoot -32.7849 1.79593
rtoes -19.7565
lfemur -51.8317 9.59309 -23.2158
ltibia 95.1397
lfoot -30.0118 -8.67357
ltoes -8.90583
100
root 0.299622 14.4293 -2.31807 4.13096 -3.32826 4.16878
lowerback 29.6351 0.624277 -4.02766
upperback 6.04572 -0.616703 -1.6262
thorax -9.48768 -0.208032 0.718865
lowerneck -13.3281 -1.51015 -8.04132
upperneck -9.5625 -0.677318 8.16073
head -0.719643 -0.0661007 4.13723
rclavicle 1.49089e-015 7.35503e-015
rhumerus -22.8426 -0.535797 -81.8297
rradius 37.0377
rwrist 12.559
rhand -29.6417 -2.1083
rfingers 7.12502
rthumb -2.97147 -32.0673
lclavicle 1.49089e-015 7.35503e-015
lhumerus -23.1675 0.717335 80.828
lradius 35.0752
lwrist 3.44112
lhand -29.6266 24.1635
lfingers 7.12502
lthumb -2.95688 54.1227
rfemur -55.295 -7.15264 12.2703
rtibia 99.7138
rfoot -32.9319 1.77281
rtoes -20.2889
lfemur -52.0272 9.87505 -23.1389
ltibia 95.5517
lfoot -29.9898 -8.72951
ltoes -10.9941
101
root 0.29562 14.3961 -2.31875 4.03496 -3.25103 4.27652
lowerback 29.7688 0.632971 -4.10477
upperback 6.08179 -0.633346 -1.61693
thorax -9.50997 -0.21341 0.780068
lowerneck -13.3903 -1.49762 -8.19579
upperneck -9.64672 -0.628249 8.26082
head -0.74068 -0.0343901 4.20747
rclavicle -1.43125e-014 -2.22639e-014
rhumerus -22.7986 -0.550811 -81.7688
rradius 37.3513
rwrist 11.9657
rhand -29.0442 -2.51521
rfingers 7.12502
rthumb -2.3944 -32.4815
lclavicle -1.43125e-014 -2.22639e-014
lhumerus -23.1236 0.45929 80.8855
lradius 35.4733
lwrist 3.62122
lhand -29.6161 24.2837
lfingers 7.12502
lthumb -2.94674 54.2431
rfemur -55.3077 -7.27345 12.0994
rtibia 100.074
rfoot -33.1424 2.0184
rtoes -20.2455
lfemur -52.1746 10.0345 -23.2424
ltibia 95.9581
lfoot -29.9331 -8.92161
ltoes -11.555
102
root 0.291033 14.3548 -2.3211 4.05209 -3.21903 4.30112
lowerback 29.8021 0.629008 -4.08699
upperback 6.07735 -0.63397 -1.60976
thorax -9.53154 -0.213506 0.778145
lowerneck -13.4207 -1.51853 -8.1969
upperneck -9.74192 -0.651485 8.2155
head -0.765824 -0.0453335 4.19072
rclavicle 8.44835e-015 1.83876e-014
rhumerus -22.8053 -0.439438 -81.741
rradius 37.5734
rwrist 11.4863
rhand -28.8603 -2.62762
rfingers 7.12502
rthumb -2.21674 -32.5959
lclavicle 8.44835e-015 1.83876e-014
lhumerus -23.1052 0.290399 80.9144
lradius 35.9106
lwrist 3.71809
lhand -29.7043 24.3301
lfingers 7.12502
lthumb -3.03192 54.2882
rfemur -55.5104 -7.31283 12.0459
rtibia 100.485
rfoot -33.3555 2.23089
rtoes -20.1187
lfemur -52.5007 10.1967 -23.2682
ltibia 96.4189
lfoot -29.8604 -9.1762
ltoes -11.2475
103
root 0.285654 14.3019 -2.32289 4.07223 -3.16537 4.2174
lowerback 29.8227 0.60271 -3.95816
upperback 6.07351 -0.626768 -1.5864
thorax -9.54799 -0.212739 0.727618
lowerneck -13.4576 -1.5345 -8.05999
upperneck -9.8742 -0.688904 8.04298
head -0.802518 -0.0681883 4.09957
rclavicle -2.48481e-015 1.13307e-014
rhumerus -22.7875 -0.387814 -81.7232
rradius 37.7016
rwrist 11.1359
rhand -28.944 -2.57539
rfingers 7.12502
rthumb -2.2976 -32.5428
lclavicle -2.48481e-015 1.13307e-014
lhumerus -23.092 0.0642537 80.9202
lradius 36.3463
lwrist 3.87001
lhand -29.8992 24.396
lfingers 7.12502
lthumb -3.2201 54.3514
rfemur -55.8127 -7.33672 12.1583
rtibia 100.972
rfoot -33.5668 2.21555
rtoes -20.1472
lfemur -52.8749 10.3459 -23.1564
ltibia 96.9624
lfoot -29.7988 -9.54354
ltoes -10.5384
104
root 0.279146 14.2477 -2.32633 4.0349 -3.03571 4.21369
lowerback 29.8694 0.577317 -3.89428
upperback 6.13173 -0.637719 -1.5728
thorax -9.50453 -0.220267 0.71038
lowerneck -13.6376 -1.5675 -7.96048
upperneck -9.93339 -0.736093 7.90618
head -0.789401 -0.0919462 4.02854
rclavicle 9.14409e-015 2.25621e-014
rhumerus -22.7249 -0.342961 -81.6931
rradius 37.8956
rwrist 10.9664
rhand -29.2441 -2.74914
rfingers 7.12502
rthumb -2.58749 -32.7132
lclavicle 9.14409e-015 2.25621e-014
lhumerus -22.9981 -0.093462 80.9371
lradius 36.8255
lwrist 3.99919
lhand -29.9494 24.1897
lfingers 7.12502
lthumb -3.26862 54.1444
rfemur -56.068 -7.4524 12.2038
rtibia 101.487
rfoot -33.7889 2.11843
rtoes -20.2316
lfemur -53.1808 10.4519 -23.147
ltibia 97.5085
lfoot -29.8092 -9.68362
ltoes -10.4338
105
root 0.272992 14.1975 -2.33243 4.01109 -2.95799 4.32774
lowerback 29.9614 0.575843 -3.96841
upperback 6.17996 -0.666254 -1.58737
thorax -9.49215 -0.232201 0.747364
lowerneck -13.8989 -1.58387 -8.00317
upperneck -9.92854 -0.732748 7.93454
head -0.743838 -0.0835772 4.04789
rclavicle 2.6339e-015 -8.34896e-015
rhumerus -22.6584 -0.322181 -81.6754
rradius 38.2171
rwrist 10.903
rhand -29.5854 -3.08171
rfingers 7.12502
rthumb -2.91706 -33.0415
lclavicle 2.6339e-015 -8.34896e-015
lhumerus -22.8928 -0.163277 80.9312
lradius 37.3511
lwrist 4.15409
lhand -30.0487 23.6705
lfingers 7.12502
lthumb -3.36451 53.6237
rfemur -56.3478 -7.52088 12.1224
rtibia 102.001
rfoot -34.0117 1.90555
rtoes -20.451
lfemur -53.4835 10.5778 -23.3032
ltibia 98.0287
lfoot -29.9065 -9.6569
ltoes -10.5518
106
root 0.267403 14.1457 -2.33871 3.99645 -2.87119 4.43938
lowerback 30.0949 0.555363 -3.99605
upperback 6.19335 -0.711077 -1.62498
thorax -9.54043 -0.251608 0.737474
lowerneck -14.0923 -1.5694 -8.02731
upperneck -10.0109 -0.690103 7.98902
head -0.742365 -0.0569239 4.07522
rclavicle -3.18055e-015 5.56597e-015
rhumerus -22.5542 -0.269599 -81.7176
rradius 38.4706
rwrist 10.5154
rhand -29.6676 -3.205
rfingers 7.12502
rthumb -2.99641 -33.1637
lclavicle -3.18055e-015 5.56597e-015
lhumerus -22.7749 -0.367435 80.9104
lradius 37.8024
lwrist 4.53848
lhand -30.4226 23.2469
lfingers 7.12502
lthumb -3.72552 53.1941
rfemur -56.6423 -7.58413 12.061
rtibia 102.514
rfoot -34.2148 1.63408
rtoes -20.8187
lfemur -53.8103 10.659 -23.4657
ltibia 98.5265
lfoot -30.0526 -9.50851
ltoes -11.0005
